<svg width="24" height="24" viewBox="0 0 24 24" fill="none" xmlns="http://www.w3.org/2000/svg">
<g clip-path="url(#clip0_518_9)">
<mask id="mask0_518_9" style="mask-type:luminance" maskUnits="userSpaceOnUse" x="0" y="0" width="24" height="24">
<path d="M24 0H0V24H24V0Z" fill="white"/>
</mask>
<g mask="url(#mask0_518_9)">
<path d="M12.2468 7.44672C11.7072 7.44749 11.1721 7.54457 10.6667 7.73339L16.5334 13.6C16.7246 13.0884 16.8217 12.5463 16.8201 12.0001C16.8148 10.7906 16.3306 9.63248 15.4736 8.77914C14.6165 7.92579 13.4562 7.44671 12.2468 7.44672Z" fill="#9CA3AF"/>
<path d="M22.8601 11.6867C20.6134 7.53335 16.6733 5.02002 12.3134 5.02002C11.1263 5.02258 9.94712 5.21386 8.82007 5.58669L9.8934 6.66669C10.684 6.46252 11.4969 6.35727 12.3134 6.35336C16.0667 6.35336 19.48 8.44669 21.5134 11.9734C20.7669 13.2813 19.7781 14.4351 18.6001 15.3733L19.5467 16.32C20.9112 15.2199 22.0441 13.8604 22.8801 12.3201L23.0534 12L22.8601 11.6867Z" fill="#9CA3AF"/>
<path d="M3.24692 3.85338L6.22025 6.82672C4.34047 8.03633 2.80436 9.71021 1.76025 11.6867L1.58691 12L1.76025 12.3201C4.00691 16.4734 7.94691 18.9867 12.307 18.9867C14.0088 18.9871 15.6886 18.6019 17.2202 17.86L20.5536 21.1934L21.7202 20.1934L4.38692 2.86005L3.24692 3.85338ZM8.78025 9.38672C8.15653 10.2663 7.8642 11.3383 7.95499 12.4127C8.04578 13.4871 8.51385 14.4948 9.27632 15.2574C10.0388 16.0198 11.0464 16.4879 12.121 16.5787C13.1954 16.6694 14.2673 16.3771 15.1469 15.7534L16.2136 16.8201C14.9788 17.3481 13.6499 17.6202 12.307 17.62C8.55358 17.62 5.14025 15.5267 3.10691 12C4.08296 10.2724 5.48826 8.82576 7.18691 7.80005L8.78025 9.38672Z" fill="#9CA3AF"/>
</g>
</g>
<defs>
<clipPath id="clip0_518_9">
<rect width="24" height="24" fill="white"/>
</clipPath>
</defs>
</svg>
