<svg width="24" height="24" viewBox="0 0 24 24" fill="none" xmlns="http://www.w3.org/2000/svg">
<g clip-path="url(#clip0_518_2)">
<mask id="mask0_518_2" style="mask-type:luminance" maskUnits="userSpaceOnUse" x="0" y="0" width="24" height="24">
<path d="M24 0H0V24H24V0Z" fill="white"/>
</mask>
<g mask="url(#mask0_518_2)">
<path d="M22.4134 11.6867C20.1668 7.53335 16.2267 5.02002 11.8667 5.02002C7.50673 5.02002 3.56006 7.53335 1.33339 11.6867L1.14673 12L1.32006 12.3201C3.56672 16.4734 7.50673 18.9867 11.8667 18.9867C16.2267 18.9867 20.1734 16.5067 22.4134 12.3201L22.5867 12L22.4134 11.6867ZM11.8667 17.62C8.11339 17.62 4.66673 15.5267 2.66673 12C4.66673 8.47336 8.11339 6.38002 11.8667 6.38002C15.6201 6.38002 19.0268 8.48002 21.0601 12C19.0268 15.5267 15.6134 17.62 11.8667 17.62Z" fill="#9CA3AF"/>
<path d="M12.0599 16.5934C14.5857 16.5934 16.6332 14.5458 16.6332 12.0201C16.6332 9.49427 14.5857 7.44672 12.0599 7.44672C9.53413 7.44672 7.48657 9.49427 7.48657 12.0201C7.48657 14.5458 9.53413 16.5934 12.0599 16.5934Z" fill="#9CA3AF"/>
</g>
</g>
<defs>
<clipPath id="clip0_518_2">
<rect width="24" height="24" fill="white"/>
</clipPath>
</defs>
</svg>
